<svg width="390" height="844" viewBox="0 0 390 844" fill="none" xmlns="http://www.w3.org/2000/svg">
<path opacity="0.3" d="M268.093 -12.1259C351.912 73.6285 416.988 177.608 457.477 290.478C459.516 296.15 461.517 302.115 460.686 308.08C459.856 314.045 455.25 319.943 449.219 320.113C443.924 320.255 439.564 316.215 435.845 312.44C424.538 300.963 413.222 289.496 401.915 278.019C393.591 269.582 381.699 260.455 371.147 265.854C364.21 269.412 361.417 278.274 362.549 285.985C363.682 293.696 367.882 300.558 371.921 307.221C371.921 307.221 500.487 562.729 518.126 656.345C503.139 560.265 473.239 470.811 430.645 383.396C427.228 376.393 423.019 365.114 422.594 357.328C422.169 349.541 425.756 340.962 432.985 338.055C443.981 333.629 455.004 343.803 462.517 352.967C472.739 365.426 482.96 377.874 493.182 390.333C496.541 394.429 500.515 398.855 505.8 399.186C511.812 399.572 516.937 394.117 518.306 388.247C519.674 382.376 518.221 376.26 516.711 370.428C486.65 254.339 408.692 96.7046 312.423 -3.33904L268.093 -12.1259Z" fill="#554872"/>
<path opacity="0.3" d="M-48 436.659C35.8196 522.414 100.895 626.393 141.384 739.263C143.423 744.935 145.424 750.9 144.593 756.865C143.763 762.83 139.157 768.729 133.126 768.899C127.831 769.04 123.471 765.001 119.752 761.225C108.446 749.749 97.1293 738.281 85.8225 726.805C77.4981 718.367 65.6061 709.24 55.0543 714.639C48.1174 718.197 45.3237 727.059 46.4563 734.77C47.5888 742.481 51.7888 749.343 55.8283 756.006C55.8283 756.006 184.394 1011.51 202.034 1105.13C187.046 1009.05 157.146 919.596 114.552 832.181C111.135 825.178 106.926 813.899 106.501 806.113C106.077 798.326 109.663 789.747 116.893 786.84C127.888 782.414 138.912 792.588 146.424 801.752C156.646 814.211 166.867 826.66 177.089 839.118C180.449 843.214 184.422 847.64 189.707 847.971C195.719 848.358 200.844 842.902 202.213 837.032C203.581 831.161 202.128 825.046 200.618 819.213C170.558 703.125 92.599 545.49 -3.66936 445.446L-48 436.659Z" fill="#554872"/>
<path opacity="0.3" d="M-29.5863 323.61C2.46539 324.563 -26.0187 521.81 -16.4485 491.211C9.97814 406.741 90.4094 419.237 145.886 477.054C179.392 511.975 235.51 610.018 262.928 641.758C269.431 649.29 277.246 656.85 287.137 658.011C299.585 659.473 311.194 649.809 316.14 638.285C324.691 618.371 321.463 591.519 319.009 570.633C315.253 538.581 306.57 507.322 297.415 476.46C283.607 429.958 264.882 384.958 242.532 341.939C242.325 341.542 242.126 341.155 241.919 340.768C213.963 287.179 179.533 236.95 139.421 191.732C123.896 174.234 106.086 158.897 86.5398 146.052C177.296 238.101 249.262 369.356 287.929 513.372C290.912 524.49 293.743 535.948 293.819 547.33C293.894 558.713 290.742 570.18 283.937 575.295C276.207 581.109 264.334 578.986 257.463 569.595C250.828 560.525 243.25 550.567 237.171 539.714C206.687 485.237 172.927 434.111 136.477 387.204C120.007 366.006 102.802 345.488 83.463 330.415C64.1244 315.352 42.3319 305.98 21.7663 308.726L-29.5863 323.61Z" fill="#554872"/>
<path opacity="0.3" d="M44.5344 -44C46.0823 -44.0283 153.459 116.712 220.375 279.075C181.075 210.828 121.927 119.59 -5.03433 16.2149C-4.93051 16.2999 10.5668 -1.4154 11.9919 -3.02931C17.0602 -8.75823 41.1461 -43.9339 44.5344 -44Z" fill="#554872"/>
<path opacity="0.4" d="M342.614 340.684C342.614 341.596 343.353 342.335 344.265 342.335C345.178 342.335 345.917 341.596 345.917 340.684C345.917 339.771 345.178 339.032 344.265 339.032C343.353 339.032 342.614 339.771 342.614 340.684Z" fill="white"/>
<path opacity="0.4" d="M91.155 349.414C91.155 350.326 91.8945 351.065 92.8067 351.065C93.7189 351.065 94.4583 350.326 94.4583 349.414C94.4583 348.502 93.7189 347.762 92.8067 347.762C91.8945 347.762 91.155 348.502 91.155 349.414Z" fill="white"/>
<path opacity="0.4" d="M126.774 508.568C126.774 509.48 127.514 510.22 128.426 510.22C129.338 510.22 130.078 509.48 130.078 508.568C130.078 507.656 129.338 506.916 128.426 506.916C127.514 506.916 126.774 507.656 126.774 508.568Z" fill="white"/>
<path opacity="0.4" d="M76.9224 570.671C76.9224 571.583 77.6618 572.322 78.574 572.322C79.4862 572.322 80.2257 571.583 80.2257 570.671C80.2257 569.758 79.4862 569.019 78.574 569.019C77.6618 569.019 76.9224 569.758 76.9224 570.671Z" fill="white"/>
<path opacity="0.4" d="M178.278 668.685C178.278 669.597 179.017 670.337 179.93 670.337C180.842 670.337 181.581 669.597 181.581 668.685C181.581 667.773 180.842 667.033 179.93 667.033C179.017 667.033 178.278 667.773 178.278 668.685Z" fill="white"/>
<path opacity="0.4" d="M198.041 460.075C198.041 460.987 198.781 461.727 199.693 461.727C200.605 461.727 201.345 460.987 201.345 460.075C201.345 459.163 200.605 458.424 199.693 458.424C198.781 458.424 198.041 459.163 198.041 460.075Z" fill="white"/>
<path opacity="0.4" d="M187.423 381.418C187.423 382.33 188.163 383.07 189.075 383.07C189.987 383.07 190.727 382.33 190.727 381.418C190.727 380.506 189.987 379.767 189.075 379.767C188.163 379.767 187.423 380.506 187.423 381.418Z" fill="white"/>
<path opacity="0.4" d="M83.8405 192.034C83.8405 192.946 84.58 193.685 85.4922 193.685C86.4044 193.685 87.1438 192.946 87.1438 192.034C87.1438 191.122 86.4044 190.382 85.4922 190.382C84.58 190.382 83.8405 191.122 83.8405 192.034Z" fill="white"/>
<path opacity="0.4" d="M371.324 285.15C371.324 286.062 372.064 286.802 372.976 286.802C373.888 286.802 374.628 286.062 374.628 285.15C374.628 284.238 373.888 283.498 372.976 283.498C372.064 283.498 371.324 284.238 371.324 285.15Z" fill="white"/>
<path opacity="0.4" d="M276.141 161.832C276.141 162.744 276.881 163.484 277.793 163.484C278.705 163.484 279.445 162.744 279.445 161.832C279.445 160.92 278.705 160.18 277.793 160.18C276.881 160.18 276.141 160.92 276.141 161.832Z" fill="white"/>
<path opacity="0.4" d="M212.906 172.45C212.906 173.362 213.646 174.101 214.558 174.101C215.47 174.101 216.21 173.362 216.21 172.45C216.21 171.538 215.47 170.798 214.558 170.798C213.646 170.798 212.906 171.538 212.906 172.45Z" fill="white"/>
<path opacity="0.7" d="M339.197 398.662L340.254 404.334L341.311 398.662L343.416 400.115L341.972 398.001L347.644 396.944L341.972 395.896L343.416 393.782L341.311 395.226L340.254 389.563L339.197 395.226L337.083 393.782L338.536 395.896L332.864 396.944L338.536 398.001L337.083 400.115L339.197 398.662Z" fill="#E1D1FF"/>
<path opacity="0.7" d="M197.107 695.064L198.154 700.727L199.211 695.064L201.326 696.508L199.872 694.394L205.544 693.347L199.872 692.29L201.326 690.175L199.211 691.629L198.154 685.957L197.107 691.629L194.993 690.175L196.437 692.29L190.774 693.347L196.437 694.394L194.993 696.508L197.107 695.064Z" fill="#E1D1FF"/>
<path opacity="0.7" d="M206.299 563.356L207.357 569.019L208.414 563.356L210.528 564.8L209.074 562.686L214.747 561.638L209.074 560.581L210.528 558.467L208.414 559.921L207.357 554.248L206.299 559.921L204.195 558.467L205.639 560.581L199.967 561.638L205.639 562.686L204.195 564.8L206.299 563.356Z" fill="#E1D1FF"/>
<path opacity="0.7" d="M325.172 672.47L326.229 678.142L327.286 672.47L329.391 673.914L327.947 671.809L333.619 670.752L327.947 669.695L329.391 667.581L327.286 669.034L326.229 663.362L325.172 669.034L323.058 667.581L324.511 669.695L318.839 670.752L324.511 671.809L323.058 673.914L325.172 672.47Z" fill="#E1D1FF"/>
<path opacity="0.7" d="M160.27 265.906L161.318 271.578L162.375 265.906L164.489 267.35L163.035 265.245L168.708 264.188L163.035 263.131L164.489 261.017L162.375 262.47L161.318 256.798L160.27 262.47L158.156 261.017L159.6 263.131L153.928 264.188L159.6 265.245L158.156 267.35L160.27 265.906Z" fill="#E1D1FF"/>
<path opacity="0.7" d="M118.289 310.954L119.347 316.626L120.394 310.954L122.508 312.398L121.064 310.283L126.727 309.236L121.064 308.179L122.508 306.065L120.394 307.518L119.347 301.846L118.289 307.518L116.175 306.065L117.629 308.179L111.957 309.236L117.629 310.283L116.175 312.398L118.289 310.954Z" fill="#E1D1FF"/>
<path opacity="0.7" d="M373.967 218.451L375.024 224.123L376.081 218.451L378.195 219.904L376.742 217.79L382.414 216.733L376.742 215.676L378.195 213.571L376.081 215.015L375.024 209.343L373.967 215.015L371.862 213.571L373.306 215.676L367.634 216.733L373.306 217.79L371.862 219.904L373.967 218.451Z" fill="#E1D1FF"/>
<path opacity="0.7" d="M369.427 91.9901L370.484 97.6624L371.541 91.9901L373.656 93.4342L372.202 91.32L377.874 90.2724L372.202 89.2153L373.656 87.1012L371.541 88.5547L370.484 82.8824L369.427 88.5547L367.323 87.1012L368.767 89.2153L363.094 90.2724L368.767 91.32L367.323 93.4342L369.427 91.9901Z" fill="#E1D1FF"/>
<path opacity="0.7" d="M81.0185 77.8424L82.0756 83.5147L83.1326 77.8424L85.2468 79.2865L83.7933 77.1818L89.4656 76.1247L83.7933 75.0676L85.2468 72.9535L83.1326 74.407L82.0756 68.7347L81.0185 74.407L78.9138 72.9535L80.3578 75.0676L74.6855 76.1247L80.3578 77.1818L78.9138 79.2864L81.0185 77.8424Z" fill="#E1D1FF"/>
<path d="M327.834 353.539C282.835 340.782 289.397 379.055 298.772 379.055C302.623 379.055 310.607 380 320.335 380H349.866C387.364 380 398.146 377.48 398.615 376.692C401.896 351.649 382.053 354.012 371.428 356.847C373.146 347.554 371.334 328.78 350.334 328.024C329.333 327.268 326.584 344.719 327.834 353.539Z" fill="#1F265E"/>
<path d="M12.3864 264.823C-5.6972 259.916 -3.06018 274.637 0.707231 274.637C2.25505 274.637 5.46352 275 9.37271 275H21.2403C36.3099 275 40.6426 274.031 40.8311 273.728C42.1497 264.096 34.1752 265.005 29.9054 266.095C30.5961 262.521 29.8677 255.3 21.4283 255.009C12.989 254.718 11.884 261.43 12.3864 264.823Z" fill="#1F265E"/>
<path d="M209.456 101.155C174.971 91.5861 180 120.291 187.184 120.291C190.136 120.291 196.254 121 203.709 121H226.34C255.077 121 263.34 119.11 263.699 118.519C266.214 99.737 251.007 101.509 242.864 103.635C244.181 96.6656 242.792 82.5848 226.699 82.0178C210.605 81.4508 208.498 94.5394 209.456 101.155Z" fill="#1F265E"/>
<path d="M353.754 64.7342C327.68 57.3739 331.482 79.4548 336.914 79.4548C339.146 79.4548 343.772 80 349.408 80H366.52C388.248 80 394.495 78.5461 394.767 78.0918C396.668 63.6438 385.17 65.0068 379.014 66.6424C380.01 61.2813 378.959 50.4499 366.791 50.0137C354.622 49.5775 353.029 59.6457 353.754 64.7342Z" fill="#1F265E"/>
<path d="M10.7269 84.8051C-9.03894 79.4075 -6.15661 95.6002 -2.03875 95.6002C-0.34694 95.6002 3.15999 96 7.43283 96H20.4043C36.8758 96 41.6115 94.9338 41.8176 94.6006C43.2589 84.0055 34.5426 85.005 29.8756 86.2044C30.6305 82.2729 29.8343 74.3299 20.6099 74.01C11.3855 73.6902 10.1777 81.0735 10.7269 84.8051Z" fill="#1F265E"/>
<path d="M50.7373 76.2972C50.7373 76.2972 47.5467 70.2284 42.4343 73.3696C42.4343 73.3696 46.0131 68.3896 42.9461 64.712C42.9461 64.712 46.5161 68.8432 51.2243 67.1614C51.2243 67.1614 47.5219 69.7502 50.7373 76.2972Z" fill="#6D75B0"/>
<path d="M27.6727 52.6525C27.6727 52.6525 30.8856 49.5582 27.9957 46.9339C27.9957 46.9339 31.7562 48.2665 33.4976 45.6832C33.4976 45.6832 31.5641 48.663 33.4689 51.2995C33.4689 51.2995 31.1799 49.456 27.6727 52.6525Z" fill="white"/>
<g filter="url(#filter0_f_5_466)">
<circle cx="128.898" cy="91.6592" r="23.9444" fill="#D3D4DE"/>
<circle cx="120.629" cy="80.6125" r="4.39561" fill="#C5C6D0"/>
<circle cx="138.778" cy="91.457" r="6.37293" fill="#F1F1F3"/>
<path fill-rule="evenodd" clip-rule="evenodd" d="M146.67 107.707C143.838 110.84 140.19 113.221 136.06 114.514C135.702 113.718 135.504 112.836 135.504 111.907C135.504 108.387 138.357 105.534 141.877 105.534C143.787 105.534 145.502 106.375 146.67 107.707Z" fill="#C5C6D0"/>
<circle cx="123.478" cy="106.755" r="2.8491" fill="#C5C6D0"/>
</g>
<circle cx="131.47" cy="89.9723" r="23.9444" fill="#D3D4DE"/>
<circle cx="123.2" cy="78.9256" r="4.39561" fill="#C5C6D0"/>
<circle cx="141.35" cy="89.7701" r="6.37293" fill="#F1F1F3"/>
<path fill-rule="evenodd" clip-rule="evenodd" d="M149.241 106.02C146.41 109.153 142.761 111.535 138.631 112.827C138.274 112.031 138.075 111.149 138.075 110.22C138.075 106.7 140.928 103.847 144.448 103.847C146.359 103.847 148.073 104.688 149.241 106.02Z" fill="#C5C6D0"/>
<circle cx="126.049" cy="105.068" r="2.8491" fill="#C5C6D0"/>
<circle cx="147.976" cy="81" r="24" fill="#031138"/>
<path d="M299.293 45.9435C299.293 45.9435 300.588 52.6765 306.391 51.1518C306.391 51.1518 301.523 54.8808 303.392 59.2895C303.392 59.2895 301.173 54.301 296.179 54.5461C296.179 54.5461 300.473 53.1414 299.293 45.9435Z" fill="#6D75B0"/>
<path d="M291.402 91.2262C291.402 91.2262 287.431 93.2565 289.436 96.6057C289.436 96.6057 286.223 94.2404 283.808 96.2082C283.808 96.2082 286.522 93.9166 285.463 90.8413C285.463 90.8413 287.119 93.2691 291.402 91.2262Z" fill="white"/>
<g filter="url(#filter1_f_5_466)">
<path d="M291.402 91.2263C291.402 91.2263 287.431 93.2566 289.436 96.6058C289.436 96.6058 286.223 94.2405 283.808 96.2083C283.808 96.2083 286.522 93.9167 285.463 90.8413C285.463 90.8413 287.119 93.2691 291.402 91.2263Z" fill="white"/>
</g>
<path d="M340.458 111.278C340.458 111.278 336.486 113.309 338.491 116.658C338.491 116.658 335.278 114.292 332.863 116.26C332.863 116.26 335.577 113.969 334.518 110.893C334.518 110.893 336.175 113.321 340.458 111.278Z" fill="#6D75B0"/>
<defs>
<filter id="filter0_f_5_466" x="90.9537" y="53.7148" width="75.8889" height="75.8889" filterUnits="userSpaceOnUse" color-interpolation-filters="sRGB">
<feFlood flood-opacity="0" result="BackgroundImageFix"/>
<feBlend mode="normal" in="SourceGraphic" in2="BackgroundImageFix" result="shape"/>
<feGaussianBlur stdDeviation="7" result="effect1_foregroundBlur_5_466"/>
</filter>
<filter id="filter1_f_5_466" x="279.808" y="86.8413" width="15.5947" height="13.7645" filterUnits="userSpaceOnUse" color-interpolation-filters="sRGB">
<feFlood flood-opacity="0" result="BackgroundImageFix"/>
<feBlend mode="normal" in="SourceGraphic" in2="BackgroundImageFix" result="shape"/>
<feGaussianBlur stdDeviation="2" result="effect1_foregroundBlur_5_466"/>
</filter>
</defs>
</svg>
