<svg width="390" height="1162" viewBox="0 0 390 1162" fill="none" xmlns="http://www.w3.org/2000/svg">
<g opacity="0.6">
<path opacity="0.3" d="M268.116 -12.1258C351.936 73.6285 417.011 177.608 457.501 290.478C459.539 296.15 461.54 302.115 460.71 308.08C459.879 314.045 455.273 319.943 449.242 320.113C443.948 320.255 439.587 316.215 435.869 312.44C424.562 300.963 413.246 289.496 401.939 278.02C393.614 269.582 381.722 260.455 371.171 265.854C364.234 269.412 361.44 278.274 362.573 285.985C363.705 293.696 367.905 300.558 371.945 307.221C371.945 307.221 500.51 562.729 518.15 656.345C503.162 560.265 473.262 470.811 430.668 383.396C427.252 376.393 423.042 365.114 422.618 357.328C422.193 349.541 425.779 340.962 433.009 338.055C444.004 333.629 455.028 343.803 462.541 352.967C472.762 365.426 482.984 377.874 493.205 390.333C496.565 394.429 500.538 398.855 505.824 399.186C511.836 399.573 516.961 394.117 518.329 388.247C519.698 382.376 518.244 376.26 516.734 370.428C486.674 254.339 408.715 96.7046 312.447 -3.33899L268.116 -12.1258Z" fill="#554872"/>
<path opacity="0.3" d="M-47.9765 436.659C35.843 522.414 100.919 626.393 141.408 739.263C143.446 744.935 145.447 750.9 144.617 756.865C143.786 762.83 139.18 768.729 133.15 768.899C127.855 769.04 123.494 765.001 119.776 761.225C108.469 749.749 97.1527 738.281 85.8459 726.805C77.5215 718.367 65.6296 709.24 55.0778 714.639C48.1408 718.197 45.3471 727.06 46.4797 734.77C47.6123 742.481 51.8122 749.343 55.8517 756.006C55.8517 756.006 184.417 1011.51 202.057 1105.13C187.069 1009.05 157.169 919.596 114.575 832.181C111.159 825.178 106.949 813.899 106.525 806.113C106.1 798.326 109.686 789.747 116.916 786.84C127.911 782.414 138.935 792.588 146.448 801.753C156.669 814.211 166.891 826.66 177.112 839.118C180.472 843.214 184.446 847.64 189.731 847.971C195.743 848.358 200.868 842.903 202.236 837.032C203.605 831.162 202.151 825.046 200.641 819.213C170.581 703.125 92.6224 545.49 -3.64592 445.446L-47.9765 436.659Z" fill="#554872"/>
<path opacity="0.3" d="M-29.5629 323.61C2.48882 324.563 -25.9953 521.81 -16.425 491.211C10.0016 406.741 90.4329 419.237 145.91 477.054C179.415 511.975 235.534 610.018 262.951 641.758C269.454 649.29 277.269 656.85 287.16 658.011C299.609 659.474 311.218 649.809 316.163 638.285C324.714 618.371 321.486 591.519 319.033 570.633C315.276 538.581 306.593 507.322 297.438 476.46C283.63 429.958 264.905 384.958 242.556 341.939C242.348 341.542 242.15 341.156 241.942 340.769C213.987 287.179 179.557 236.95 139.445 191.732C123.919 174.234 106.11 158.897 86.5633 146.052C177.32 238.101 249.285 369.356 287.953 513.372C290.935 524.49 293.767 535.948 293.842 547.33C293.918 558.713 290.765 570.18 283.961 575.295C276.231 581.109 264.358 578.986 257.487 569.595C250.852 560.525 243.273 550.568 237.195 539.714C206.71 485.237 172.95 434.111 136.5 387.204C120.031 366.006 102.825 345.488 83.4864 330.415C64.1478 315.352 42.3553 305.98 21.7897 308.726L-29.5629 323.61Z" fill="#554872"/>
<path opacity="0.3" d="M44.5578 -43.9999C46.1057 -44.0283 153.483 116.712 220.399 279.075C181.099 210.828 121.95 119.59 -5.0109 16.215C-4.90708 16.2999 10.5902 -1.41535 12.0154 -3.02926C17.0836 -8.75817 41.1696 -43.9339 44.5578 -43.9999Z" fill="#554872"/>
<path opacity="0.4" d="M342.637 340.684C342.637 341.596 343.377 342.335 344.289 342.335C345.201 342.335 345.94 341.596 345.94 340.684C345.94 339.771 345.201 339.032 344.289 339.032C343.377 339.032 342.637 339.771 342.637 340.684Z" fill="white"/>
<path opacity="0.4" d="M91.1784 349.414C91.1784 350.326 91.9178 351.065 92.83 351.065C93.7422 351.065 94.4817 350.326 94.4817 349.414C94.4817 348.502 93.7422 347.762 92.83 347.762C91.9178 347.762 91.1784 348.502 91.1784 349.414Z" fill="white"/>
<path opacity="0.4" d="M126.798 508.568C126.798 509.48 127.537 510.22 128.449 510.22C129.361 510.22 130.101 509.48 130.101 508.568C130.101 507.656 129.361 506.916 128.449 506.916C127.537 506.916 126.798 507.656 126.798 508.568Z" fill="white"/>
<path opacity="0.4" d="M76.9457 570.671C76.9457 571.583 77.6852 572.322 78.5974 572.322C79.5095 572.322 80.249 571.583 80.249 570.671C80.249 569.758 79.5095 569.019 78.5974 569.019C77.6852 569.019 76.9457 569.758 76.9457 570.671Z" fill="white"/>
<path opacity="0.4" d="M178.301 668.685C178.301 669.597 179.041 670.337 179.953 670.337C180.865 670.337 181.605 669.597 181.605 668.685C181.605 667.773 180.865 667.033 179.953 667.033C179.041 667.033 178.301 667.773 178.301 668.685Z" fill="white"/>
<path opacity="0.4" d="M198.065 460.075C198.065 460.987 198.804 461.727 199.716 461.727C200.628 461.727 201.368 460.987 201.368 460.075C201.368 459.163 200.628 458.424 199.716 458.424C198.804 458.424 198.065 459.163 198.065 460.075Z" fill="white"/>
<path opacity="0.4" d="M187.447 381.418C187.447 382.33 188.186 383.07 189.098 383.07C190.011 383.07 190.75 382.33 190.75 381.418C190.75 380.506 190.011 379.767 189.098 379.767C188.186 379.767 187.447 380.506 187.447 381.418Z" fill="white"/>
<path opacity="0.4" d="M83.8638 192.034C83.8638 192.946 84.6033 193.685 85.5155 193.685C86.4276 193.685 87.1671 192.946 87.1671 192.034C87.1671 191.122 86.4276 190.382 85.5155 190.382C84.6033 190.382 83.8638 191.122 83.8638 192.034Z" fill="white"/>
<path opacity="0.4" d="M371.348 285.15C371.348 286.062 372.087 286.802 372.999 286.802C373.912 286.802 374.651 286.062 374.651 285.15C374.651 284.238 373.912 283.498 372.999 283.498C372.087 283.498 371.348 284.238 371.348 285.15Z" fill="white"/>
<path opacity="0.4" d="M276.165 161.832C276.165 162.744 276.904 163.484 277.816 163.484C278.729 163.484 279.468 162.744 279.468 161.832C279.468 160.92 278.729 160.18 277.816 160.18C276.904 160.18 276.165 160.92 276.165 161.832Z" fill="white"/>
<path opacity="0.4" d="M212.93 172.45C212.93 173.362 213.669 174.102 214.581 174.102C215.493 174.102 216.233 173.362 216.233 172.45C216.233 171.538 215.493 170.798 214.581 170.798C213.669 170.798 212.93 171.538 212.93 172.45Z" fill="white"/>
<path opacity="0.7" d="M339.221 398.662L340.278 404.334L341.335 398.662L343.439 400.115L341.995 398.001L347.668 396.944L341.995 395.896L343.439 393.782L341.335 395.226L340.278 389.563L339.221 395.226L337.106 393.782L338.56 395.896L332.888 396.944L338.56 398.001L337.106 400.115L339.221 398.662Z" fill="#E1D1FF"/>
<path opacity="0.7" d="M197.13 695.064L198.178 700.727L199.235 695.064L201.349 696.508L199.896 694.394L205.568 693.347L199.896 692.29L201.349 690.175L199.235 691.629L198.178 685.957L197.13 691.629L195.016 690.175L196.46 692.29L190.797 693.347L196.46 694.394L195.016 696.508L197.13 695.064Z" fill="#E1D1FF"/>
<path opacity="0.7" d="M206.323 563.356L207.38 569.019L208.437 563.356L210.551 564.8L209.098 562.686L214.77 561.638L209.098 560.581L210.551 558.467L208.437 559.921L207.38 554.248L206.323 559.921L204.218 558.467L205.662 560.581L199.99 561.638L205.662 562.686L204.218 564.8L206.323 563.356Z" fill="#E1D1FF"/>
<path opacity="0.7" d="M325.196 672.47L326.253 678.142L327.31 672.47L329.414 673.914L327.97 671.809L333.643 670.752L327.97 669.695L329.414 667.581L327.31 669.034L326.253 663.362L325.196 669.034L323.082 667.581L324.535 669.695L318.863 670.752L324.535 671.809L323.082 673.914L325.196 672.47Z" fill="#E1D1FF"/>
<path opacity="0.7" d="M160.294 265.906L161.341 271.578L162.398 265.906L164.512 267.35L163.059 265.245L168.731 264.188L163.059 263.131L164.512 261.017L162.398 262.47L161.341 256.798L160.294 262.47L158.179 261.017L159.623 263.131L153.951 264.188L159.623 265.245L158.179 267.35L160.294 265.906Z" fill="#E1D1FF"/>
<path opacity="0.7" d="M118.313 310.954L119.37 316.626L120.418 310.954L122.532 312.398L121.088 310.283L126.751 309.236L121.088 308.179L122.532 306.065L120.418 307.518L119.37 301.846L118.313 307.518L116.199 306.065L117.652 308.179L111.98 309.236L117.652 310.283L116.199 312.398L118.313 310.954Z" fill="#E1D1FF"/>
<path opacity="0.7" d="M373.99 218.451L375.047 224.123L376.105 218.451L378.219 219.904L376.765 217.79L382.437 216.733L376.765 215.676L378.219 213.572L376.105 215.016L375.047 209.343L373.99 215.016L371.886 213.572L373.33 215.676L367.657 216.733L373.33 217.79L371.886 219.904L373.99 218.451Z" fill="#E1D1FF"/>
<path opacity="0.7" d="M369.451 91.9902L370.508 97.6625L371.565 91.9902L373.679 93.4342L372.226 91.3201L377.898 90.2725L372.226 89.2154L373.679 87.1013L371.565 88.5547L370.508 82.8824L369.451 88.5547L367.346 87.1013L368.79 89.2154L363.118 90.2725L368.79 91.3201L367.346 93.4342L369.451 91.9902Z" fill="#E1D1FF"/>
<path opacity="0.7" d="M81.042 77.8425L82.099 83.5148L83.1561 77.8425L85.2702 79.2865L83.8167 77.1818L89.489 76.1248L83.8167 75.0677L85.2702 72.9536L83.1561 74.407L82.099 68.7347L81.042 74.407L78.9373 72.9536L80.3813 75.0677L74.709 76.1248L80.3813 77.1818L78.9372 79.2865L81.042 77.8425Z" fill="#E1D1FF"/>
</g>
<line opacity="0.6" x1="134.5" y1="836.5" x2="264.5" y2="836.5" stroke="#E6E6E6" stroke-width="5" stroke-linecap="round"/>
<path opacity="0.6" d="M327.857 353.539C282.859 340.782 289.421 379.055 298.795 379.055C302.647 379.055 310.631 380 320.358 380H349.889C387.388 380 398.169 377.48 398.638 376.692C401.92 351.649 382.076 354.012 371.451 356.847C373.17 347.554 371.357 328.78 350.357 328.024C329.357 327.268 326.607 344.719 327.857 353.539Z" fill="#1F265E"/>
<path opacity="0.6" d="M12.4099 264.823C-5.67368 259.916 -3.03665 274.637 0.73076 274.637C2.27858 274.637 5.48704 275 9.39624 275H21.2638C36.3334 275 40.6661 274.031 40.8546 273.728C42.1733 264.096 34.1988 265.005 29.929 266.095C30.6197 262.521 29.8912 255.3 21.4519 255.009C13.0125 254.718 11.9075 261.43 12.4099 264.823Z" fill="#1F265E"/>
<path opacity="0.6" d="M209.479 101.155C174.994 91.5861 180.023 120.291 187.207 120.291C190.159 120.291 196.278 121 203.732 121H226.363C255.101 121 263.363 119.11 263.723 118.519C266.237 99.737 251.03 101.509 242.888 103.635C244.205 96.6656 242.816 82.5848 226.722 82.0178C210.628 81.4508 208.521 94.5394 209.479 101.155Z" fill="#1F265E"/>
<path opacity="0.6" d="M353.777 64.7342C327.703 57.3739 331.505 79.4548 336.937 79.4548C339.169 79.4548 343.795 80 349.432 80H366.543C388.272 80 394.519 78.5461 394.791 78.0918C396.692 63.6438 385.194 65.0068 379.037 66.6424C380.033 61.2813 378.983 50.4499 366.814 50.0137C354.646 49.5775 353.053 59.6457 353.777 64.7342Z" fill="#1F265E"/>
<path opacity="0.6" d="M10.7504 84.8051C-9.01541 79.4075 -6.13308 95.6002 -2.01522 95.6002C-0.323411 95.6002 3.18351 96 7.45636 96H20.4279C36.8993 96 41.635 94.9338 41.8411 94.6006C43.2824 84.0055 34.5661 85.005 29.8991 86.2044C30.6541 82.2729 29.8579 74.3299 20.6334 74.01C11.409 73.6902 10.2012 81.0735 10.7504 84.8051Z" fill="#1F265E"/>
<path opacity="0.6" d="M50.7608 76.2972C50.7608 76.2972 47.5702 70.2284 42.4579 73.3696C42.4579 73.3696 46.0367 68.3896 42.9696 64.712C42.9696 64.712 46.5396 68.8432 51.2478 67.1614C51.2478 67.1614 47.5455 69.7502 50.7608 76.2972Z" fill="#6D75B0"/>
<path opacity="0.6" d="M27.6963 52.6525C27.6963 52.6525 30.9091 49.5582 28.0192 46.9339C28.0192 46.9339 31.7798 48.2665 33.5211 45.6832C33.5211 45.6832 31.5877 48.663 33.4925 51.2995C33.4925 51.2995 31.2034 49.456 27.6963 52.6525Z" fill="white"/>
<path opacity="0.6" d="M299.317 45.9435C299.317 45.9435 300.611 52.6765 306.415 51.1518C306.415 51.1518 301.546 54.8808 303.416 59.2895C303.416 59.2895 301.196 54.301 296.203 54.5461C296.203 54.5461 300.496 53.1414 299.317 45.9435Z" fill="#6D75B0"/>
<path opacity="0.6" d="M291.426 91.2262C291.426 91.2262 287.454 93.2565 289.459 96.6057C289.459 96.6057 286.246 94.2404 283.831 96.2082C283.831 96.2082 286.545 93.9166 285.486 90.8413C285.486 90.8413 287.143 93.2691 291.426 91.2262Z" fill="white"/>
<g opacity="0.6" filter="url(#filter0_f_19_3)">
<path d="M291.426 91.2263C291.426 91.2263 287.454 93.2566 289.459 96.6058C289.459 96.6058 286.246 94.2405 283.831 96.2083C283.831 96.2083 286.545 93.9167 285.486 90.8413C285.486 90.8413 287.143 93.2691 291.426 91.2263Z" fill="white"/>
</g>
<path opacity="0.6" d="M340.481 111.278C340.481 111.278 336.51 113.309 338.515 116.658C338.515 116.658 335.302 114.292 332.887 116.26C332.887 116.26 335.601 113.969 334.542 110.893C334.542 110.893 336.198 113.321 340.481 111.278Z" fill="#6D75B0"/>
<g filter="url(#filter1_f_19_3)">
<circle cx="128.922" cy="91.6592" r="23.9444" fill="#D3D4DE"/>
<circle cx="120.652" cy="80.6125" r="4.39561" fill="#C5C6D0"/>
<circle cx="138.802" cy="91.457" r="6.37293" fill="#F1F1F3"/>
<path fill-rule="evenodd" clip-rule="evenodd" d="M146.693 107.707C143.862 110.84 140.213 113.221 136.083 114.514C135.726 113.718 135.527 112.836 135.527 111.907C135.527 108.387 138.38 105.534 141.9 105.534C143.811 105.534 145.525 106.375 146.693 107.707Z" fill="#C5C6D0"/>
<circle cx="123.501" cy="106.755" r="2.8491" fill="#C5C6D0"/>
</g>
<circle cx="131.493" cy="89.9723" r="23.9444" fill="#D3D4DE"/>
<circle cx="123.224" cy="78.9256" r="4.39561" fill="#C5C6D0"/>
<circle cx="141.373" cy="89.7701" r="6.37293" fill="#F1F1F3"/>
<path fill-rule="evenodd" clip-rule="evenodd" d="M149.265 106.02C146.433 109.153 142.785 111.535 138.655 112.827C138.298 112.031 138.099 111.149 138.099 110.22C138.099 106.7 140.952 103.847 144.472 103.847C146.382 103.847 148.097 104.688 149.265 106.02Z" fill="#C5C6D0"/>
<circle cx="126.073" cy="105.068" r="2.8491" fill="#C5C6D0"/>
<circle cx="148" cy="81" r="24" fill="#031138"/>
<rect x="-17" y="241" width="432" height="943" fill="#031138"/>
<g filter="url(#filter2_f_19_3)">
<ellipse cx="201" cy="241.5" rx="303" ry="97.5" fill="#031138"/>
</g>
<defs>
<filter id="filter0_f_19_3" x="279.831" y="86.8413" width="15.5947" height="13.7645" filterUnits="userSpaceOnUse" color-interpolation-filters="sRGB">
<feFlood flood-opacity="0" result="BackgroundImageFix"/>
<feBlend mode="normal" in="SourceGraphic" in2="BackgroundImageFix" result="shape"/>
<feGaussianBlur stdDeviation="2" result="effect1_foregroundBlur_19_3"/>
</filter>
<filter id="filter1_f_19_3" x="90.9773" y="53.7148" width="75.8888" height="75.8889" filterUnits="userSpaceOnUse" color-interpolation-filters="sRGB">
<feFlood flood-opacity="0" result="BackgroundImageFix"/>
<feBlend mode="normal" in="SourceGraphic" in2="BackgroundImageFix" result="shape"/>
<feGaussianBlur stdDeviation="7" result="effect1_foregroundBlur_19_3"/>
</filter>
<filter id="filter2_f_19_3" x="-139" y="107" width="680" height="269" filterUnits="userSpaceOnUse" color-interpolation-filters="sRGB">
<feFlood flood-opacity="0" result="BackgroundImageFix"/>
<feBlend mode="normal" in="SourceGraphic" in2="BackgroundImageFix" result="shape"/>
<feGaussianBlur stdDeviation="18.5" result="effect1_foregroundBlur_19_3"/>
</filter>
</defs>
</svg>
