<svg width="1440" height="656" viewBox="0 0 1440 656" fill="none" xmlns="http://www.w3.org/2000/svg">
<path opacity="0.4" d="M485.907 262.792C485.907 263.704 486.646 264.443 487.558 264.443C488.47 264.443 489.21 263.704 489.21 262.792C489.21 261.879 488.47 261.14 487.558 261.14C486.646 261.14 485.907 261.879 485.907 262.792Z" fill="white"/>
<path opacity="0.4" d="M417.641 120.748C417.641 121.661 418.38 122.4 419.293 122.4C420.205 122.4 420.944 121.661 420.944 120.748C420.944 119.836 420.205 119.097 419.293 119.097C418.38 119.097 417.641 119.836 417.641 120.748Z" fill="white"/>
<path opacity="0.4" d="M465.445 545.226C465.445 546.138 466.184 546.878 467.096 546.878C468.009 546.878 468.748 546.138 468.748 545.226C468.748 544.314 468.009 543.574 467.096 543.574C466.184 543.574 465.445 544.314 465.445 545.226Z" fill="white"/>
<path opacity="0.4" d="M460.66 425.362C460.66 426.275 461.399 427.014 462.311 427.014C463.223 427.014 463.963 426.275 463.963 425.362C463.963 424.45 463.223 423.711 462.311 423.711C461.399 423.711 460.66 424.45 460.66 425.362Z" fill="white"/>
<path opacity="0.4" d="M347.639 295.589C347.639 296.501 348.379 297.24 349.291 297.24C350.203 297.24 350.942 296.501 350.942 295.589C350.942 294.677 350.203 293.937 349.291 293.937C348.379 293.937 347.639 294.677 347.639 295.589Z" fill="white"/>
<path opacity="0.4" d="M96.1801 304.319C96.1801 305.231 96.9195 305.971 97.8317 305.971C98.7439 305.971 99.4834 305.231 99.4834 304.319C99.4834 303.407 98.7439 302.667 97.8317 302.667C96.9195 302.667 96.1801 303.407 96.1801 304.319Z" fill="white"/>
<path opacity="0.4" d="M131.799 463.473C131.799 464.386 132.539 465.125 133.451 465.125C134.363 465.125 135.103 464.386 135.103 463.473C135.103 462.561 134.363 461.822 133.451 461.822C132.539 461.822 131.799 462.561 131.799 463.473Z" fill="white"/>
<path opacity="0.4" d="M81.9474 525.576C81.9474 526.488 82.6869 527.228 83.5991 527.228C84.5113 527.228 85.2507 526.488 85.2507 525.576C85.2507 524.664 84.5113 523.924 83.5991 523.924C82.6869 523.924 81.9474 524.664 81.9474 525.576Z" fill="white"/>
<path opacity="0.4" d="M396.915 516.798C396.915 517.711 397.654 518.45 398.567 518.45C399.479 518.45 400.218 517.711 400.218 516.798C400.218 515.886 399.479 515.147 398.567 515.147C397.654 515.147 396.915 515.886 396.915 516.798Z" fill="white"/>
<path opacity="0.4" d="M183.303 623.59C183.303 624.502 184.043 625.242 184.955 625.242C185.867 625.242 186.606 624.502 186.606 623.59C186.606 622.678 185.867 621.939 184.955 621.939C184.043 621.939 183.303 622.678 183.303 623.59Z" fill="white"/>
<path opacity="0.4" d="M203.066 414.981C203.066 415.893 203.806 416.632 204.718 416.632C205.63 416.632 206.37 415.893 206.37 414.981C206.37 414.068 205.63 413.329 204.718 413.329C203.806 413.329 203.066 414.068 203.066 414.981Z" fill="white"/>
<path opacity="0.4" d="M192.449 336.324C192.449 337.236 193.188 337.975 194.1 337.975C195.012 337.975 195.752 337.236 195.752 336.324C195.752 335.411 195.012 334.672 194.1 334.672C193.188 334.672 192.449 335.411 192.449 336.324Z" fill="white"/>
<path opacity="0.4" d="M88.8656 146.939C88.8656 147.851 89.6051 148.591 90.5173 148.591C91.4295 148.591 92.1689 147.851 92.1689 146.939C92.1689 146.027 91.4295 145.287 90.5173 145.287C89.6051 145.287 88.8656 146.027 88.8656 146.939Z" fill="white"/>
<path opacity="0.4" d="M376.35 240.055C376.35 240.967 377.089 241.707 378.001 241.707C378.913 241.707 379.653 240.967 379.653 240.055C379.653 239.143 378.913 238.403 378.001 238.403C377.089 238.403 376.35 239.143 376.35 240.055Z" fill="white"/>
<path opacity="0.4" d="M409.062 358.975C409.062 359.887 409.801 360.627 410.714 360.627C411.626 360.627 412.365 359.887 412.365 358.975C412.365 358.063 411.626 357.323 410.714 357.323C409.801 357.323 409.062 358.063 409.062 358.975Z" fill="white"/>
<path opacity="0.4" d="M281.166 116.737C281.166 117.649 281.906 118.389 282.818 118.389C283.73 118.389 284.47 117.649 284.47 116.737C284.47 115.825 283.73 115.086 282.818 115.086C281.906 115.086 281.166 115.825 281.166 116.737Z" fill="white"/>
<path opacity="0.4" d="M217.932 127.355C217.932 128.267 218.671 129.007 219.583 129.007C220.495 129.007 221.235 128.267 221.235 127.355C221.235 126.443 220.495 125.703 219.583 125.703C218.671 125.703 217.932 126.443 217.932 127.355Z" fill="white"/>
<path opacity="0.7" d="M344.222 353.567L345.279 359.239L346.336 353.567L348.441 355.02L346.997 352.906L352.669 351.849L346.997 350.801L348.441 348.687L346.336 350.131L345.279 344.469L344.222 350.131L342.108 348.687L343.562 350.801L337.889 351.849L343.562 352.906L342.108 355.02L344.222 353.567Z" fill="#E1D1FF"/>
<path opacity="0.7" d="M202.132 649.97L203.18 655.632L204.237 649.97L206.351 651.414L204.898 649.299L210.57 648.252L204.898 647.195L206.351 645.081L204.237 646.534L203.18 640.862L202.132 646.534L200.018 645.081L201.462 647.195L195.799 648.252L201.462 649.299L200.018 651.414L202.132 649.97Z" fill="#E1D1FF"/>
<path opacity="0.7" d="M211.325 518.261L212.382 523.924L213.439 518.261L215.553 519.705L214.1 517.591L219.772 516.544L214.1 515.486L215.553 513.372L213.439 514.826L212.382 509.154L211.325 514.826L209.22 513.372L210.664 515.486L204.992 516.544L210.664 517.591L209.22 519.705L211.325 518.261Z" fill="#E1D1FF"/>
<path opacity="0.7" d="M330.197 627.375L331.255 633.047L332.312 627.375L334.416 628.819L332.972 626.714L338.645 625.657L332.972 624.6L334.416 622.486L332.312 623.94L331.255 618.267L330.197 623.94L328.083 622.486L329.537 624.6L323.865 625.657L329.537 626.714L328.083 628.819L330.197 627.375Z" fill="#E1D1FF"/>
<path opacity="0.7" d="M454.676 491.806L455.733 497.479L456.79 491.806L458.895 493.25L457.451 491.146L463.123 490.089L457.451 489.032L458.895 486.917L456.79 488.371L455.733 482.699L454.676 488.371L452.562 486.917L454.015 489.032L448.343 490.089L454.015 491.146L452.562 493.25L454.676 491.806Z" fill="#E1D1FF"/>
<path opacity="0.7" d="M165.295 220.811L166.343 226.483L167.4 220.811L169.514 222.255L168.061 220.15L173.733 219.093L168.061 218.036L169.514 215.922L167.4 217.375L166.343 211.703L165.295 217.375L163.181 215.922L164.625 218.036L158.953 219.093L164.625 220.15L163.181 222.255L165.295 220.811Z" fill="#E1D1FF"/>
<path opacity="0.7" d="M123.315 265.859L124.372 271.531L125.419 265.859L127.534 267.303L126.09 265.189L131.752 264.141L126.09 263.084L127.534 260.97L125.419 262.423L124.372 256.751L123.315 262.423L121.201 260.97L122.654 263.084L116.982 264.141L122.654 265.189L121.201 267.303L123.315 265.859Z" fill="#E1D1FF"/>
<path opacity="0.7" d="M378.992 173.356L380.049 179.029L381.106 173.356L383.221 174.81L381.767 172.696L387.439 171.639L381.767 170.581L383.221 168.477L381.106 169.921L380.049 164.249L378.992 169.921L376.888 168.477L378.332 170.581L372.659 171.639L378.332 172.696L376.888 174.81L378.992 173.356Z" fill="#E1D1FF"/>
<path opacity="0.7" d="M374.452 46.8955L375.509 52.5677L376.566 46.8955L378.681 48.3395L377.227 46.2254L382.899 45.1777L377.227 44.1207L378.681 42.0065L376.566 43.46L375.509 37.7877L374.452 43.46L372.348 42.0065L373.792 44.1207L368.119 45.1777L373.792 46.2254L372.348 48.3395L374.452 46.8955Z" fill="#E1D1FF"/>
<path opacity="0.7" d="M478.177 111.329L479.234 117.001L480.291 111.329L482.396 112.773L480.952 110.669L486.624 109.611L480.952 108.554L482.396 106.44L480.291 107.894L479.234 102.221L478.177 107.894L476.063 106.44L477.516 108.554L471.844 109.611L477.516 110.669L476.063 112.773L478.177 111.329Z" fill="#E1D1FF"/>
<path opacity="0.7" d="M86.0437 32.7478L87.1007 38.42L88.1578 32.7478L90.2719 34.1918L88.8185 32.0871L94.4907 31.03L88.8185 29.973L90.2719 27.8588L88.1578 29.3123L87.1007 23.64L86.0437 29.3123L83.939 27.8588L85.383 29.973L79.7107 31.03L85.383 32.0871L83.939 34.1918L86.0437 32.7478Z" fill="#E1D1FF"/>
<path d="M274.858 282.54C229.86 269.782 236.421 308.055 245.796 308.055C249.648 308.055 257.632 309 267.359 309H296.89C334.389 309 345.17 306.48 345.639 305.693C348.92 280.65 329.077 283.012 318.452 285.847C320.171 276.554 318.358 257.78 297.358 257.024C276.358 256.268 273.608 273.719 274.858 282.54Z" fill="#1F265E"/>
<path d="M17.4099 219.728C-0.673675 214.822 1.96335 229.542 5.73076 229.542C7.27858 229.542 10.487 229.906 14.3962 229.906H26.2638C41.3334 229.906 45.6661 228.936 45.8546 228.633C47.1733 219.002 39.1988 219.91 34.929 221.001C35.6197 217.427 34.8912 210.206 26.4519 209.915C18.0125 209.624 16.9075 216.336 17.4099 219.728Z" fill="#1F265E"/>
<path d="M193.48 39.1545C158.995 29.5862 164.024 58.2912 171.208 58.2912C174.16 58.2912 180.278 59 187.733 59H210.364C239.101 59 247.364 57.11 247.723 56.5193C250.238 37.737 235.031 39.5089 226.888 41.6352C228.205 34.6657 226.816 20.5849 210.723 20.0178C194.629 19.4508 192.522 32.5394 193.48 39.1545Z" fill="#1F265E"/>
<path d="M358.778 19.6397C332.704 12.2794 336.506 34.3602 341.938 34.3602C344.17 34.3602 348.796 34.9054 354.433 34.9054H371.544C393.272 34.9054 399.52 33.4515 399.791 32.9972C401.693 18.5492 390.195 19.9123 384.038 21.5479C385.034 16.1867 383.984 5.35528 371.815 4.91912C359.647 4.48296 358.054 14.5511 358.778 19.6397Z" fill="#1F265E"/>
<path d="M15.7504 39.7105C-4.01541 34.313 -1.13308 50.5056 2.98478 50.5056C4.67659 50.5056 8.18351 50.9054 12.4564 50.9054H25.4279C41.8993 50.9054 46.635 49.8392 46.8411 49.506C48.2824 38.9109 39.5661 39.9104 34.8991 41.1099C35.6541 37.1783 34.8579 29.2353 25.6334 28.9155C16.409 28.5956 15.2012 35.9789 15.7504 39.7105Z" fill="#1F265E"/>
<path d="M55.7608 31.2026C55.7608 31.2026 52.5702 25.1338 47.4579 28.275C47.4579 28.275 51.0367 23.295 47.9696 19.6174C47.9696 19.6174 51.5396 23.7485 56.2478 22.0667C56.2478 22.0667 52.5455 24.6556 55.7608 31.2026Z" fill="#6D75B0"/>
<path d="M32.6963 7.55787C32.6963 7.55787 35.9091 4.4636 33.0192 1.83934C33.0192 1.83934 36.7798 3.17193 38.5211 0.588586C38.5211 0.588586 36.5877 3.56842 38.4925 6.20493C38.4925 6.20493 36.2034 4.36141 32.6963 7.55787Z" fill="white"/>
<path d="M304.317 0.848927C304.317 0.848927 305.612 7.58196 311.416 6.05724C311.416 6.05724 306.547 9.7863 308.417 14.195C308.417 14.195 306.197 9.20648 301.204 9.45155C301.204 9.45155 305.497 8.04683 304.317 0.848927Z" fill="#6D75B0"/>
<path d="M296.427 46.1316C296.427 46.1316 292.455 48.1619 294.46 51.5111C294.46 51.5111 291.247 49.1458 288.832 51.1136C288.832 51.1136 291.546 48.822 290.487 45.7466C290.487 45.7466 292.144 48.1744 296.427 46.1316Z" fill="white"/>
<g filter="url(#filter0_f_226_3)">
<path d="M296.427 46.1316C296.427 46.1316 292.455 48.1619 294.46 51.5111C294.46 51.5111 291.247 49.1458 288.832 51.1136C288.832 51.1136 291.546 48.822 290.487 45.7466C290.487 45.7466 292.144 48.1744 296.427 46.1316Z" fill="white"/>
</g>
<path d="M345.483 66.1836C345.483 66.1836 341.511 68.2139 343.516 71.5631C343.516 71.5631 340.303 69.1978 337.888 71.1656C337.888 71.1656 340.602 68.874 339.543 65.7986C339.543 65.7986 341.199 68.2265 345.483 66.1836Z" fill="#6D75B0"/>
<path opacity="0.4" d="M971.902 262.791C971.902 263.703 972.641 264.443 973.553 264.443C974.466 264.443 975.205 263.703 975.205 262.791C975.205 261.879 974.466 261.14 973.553 261.14C972.641 261.14 971.902 261.879 971.902 262.791Z" fill="white"/>
<path opacity="0.4" d="M903.636 120.748C903.636 121.66 904.376 122.4 905.288 122.4C906.2 122.4 906.939 121.66 906.939 120.748C906.939 119.836 906.2 119.096 905.288 119.096C904.376 119.096 903.636 119.836 903.636 120.748Z" fill="white"/>
<path opacity="0.4" d="M951.44 545.226C951.44 546.138 952.179 546.877 953.092 546.877C954.004 546.877 954.743 546.138 954.743 545.226C954.743 544.313 954.004 543.574 953.092 543.574C952.179 543.574 951.44 544.313 951.44 545.226Z" fill="white"/>
<path opacity="0.4" d="M946.655 425.362C946.655 426.274 947.394 427.014 948.306 427.014C949.219 427.014 949.958 426.274 949.958 425.362C949.958 424.45 949.219 423.71 948.306 423.71C947.394 423.71 946.655 424.45 946.655 425.362Z" fill="white"/>
<path opacity="0.4" d="M833.634 295.588C833.634 296.501 834.374 297.24 835.286 297.24C836.198 297.24 836.937 296.501 836.937 295.588C836.937 294.676 836.198 293.937 835.286 293.937C834.374 293.937 833.634 294.676 833.634 295.588Z" fill="white"/>
<path opacity="0.4" d="M582.175 304.319C582.175 305.231 582.915 305.97 583.827 305.97C584.739 305.97 585.479 305.231 585.479 304.319C585.479 303.406 584.739 302.667 583.827 302.667C582.915 302.667 582.175 303.406 582.175 304.319Z" fill="white"/>
<path opacity="0.4" d="M617.794 463.473C617.794 464.385 618.534 465.125 619.446 465.125C620.358 465.125 621.098 464.385 621.098 463.473C621.098 462.561 620.358 461.821 619.446 461.821C618.534 461.821 617.794 462.561 617.794 463.473Z" fill="white"/>
<path opacity="0.4" d="M567.943 525.575C567.943 526.488 568.682 527.227 569.594 527.227C570.507 527.227 571.246 526.488 571.246 525.575C571.246 524.663 570.507 523.924 569.594 523.924C568.682 523.924 567.943 524.663 567.943 525.575Z" fill="white"/>
<path opacity="0.4" d="M882.91 516.798C882.91 517.71 883.65 518.45 884.562 518.45C885.474 518.45 886.213 517.71 886.213 516.798C886.213 515.886 885.474 515.146 884.562 515.146C883.65 515.146 882.91 515.886 882.91 516.798Z" fill="white"/>
<path opacity="0.4" d="M669.298 623.59C669.298 624.502 670.038 625.242 670.95 625.242C671.862 625.242 672.602 624.502 672.602 623.59C672.602 622.678 671.862 621.938 670.95 621.938C670.038 621.938 669.298 622.678 669.298 623.59Z" fill="white"/>
<path opacity="0.4" d="M689.061 414.98C689.061 415.892 689.801 416.632 690.713 416.632C691.625 416.632 692.365 415.892 692.365 414.98C692.365 414.068 691.625 413.328 690.713 413.328C689.801 413.328 689.061 414.068 689.061 414.98Z" fill="white"/>
<path opacity="0.4" d="M678.444 336.323C678.444 337.235 679.183 337.975 680.095 337.975C681.008 337.975 681.747 337.235 681.747 336.323C681.747 335.411 681.008 334.672 680.095 334.672C679.183 334.672 678.444 335.411 678.444 336.323Z" fill="white"/>
<path opacity="0.4" d="M574.861 146.939C574.861 147.851 575.6 148.59 576.512 148.59C577.425 148.59 578.164 147.851 578.164 146.939C578.164 146.026 577.425 145.287 576.512 145.287C575.6 145.287 574.861 146.026 574.861 146.939Z" fill="white"/>
<path opacity="0.4" d="M862.345 240.055C862.345 240.967 863.084 241.706 863.996 241.706C864.908 241.706 865.648 240.967 865.648 240.055C865.648 239.143 864.908 238.403 863.996 238.403C863.084 238.403 862.345 239.143 862.345 240.055Z" fill="white"/>
<path opacity="0.4" d="M895.057 358.975C895.057 359.887 895.796 360.626 896.709 360.626C897.621 360.626 898.36 359.887 898.36 358.975C898.36 358.062 897.621 357.323 896.709 357.323C895.796 357.323 895.057 358.062 895.057 358.975Z" fill="white"/>
<path opacity="0.4" d="M767.162 116.737C767.162 117.649 767.901 118.389 768.813 118.389C769.725 118.389 770.465 117.649 770.465 116.737C770.465 115.825 769.725 115.085 768.813 115.085C767.901 115.085 767.162 115.825 767.162 116.737Z" fill="white"/>
<path opacity="0.4" d="M703.927 127.355C703.927 128.267 704.666 129.006 705.578 129.006C706.491 129.006 707.23 128.267 707.23 127.355C707.23 126.442 706.491 125.703 705.578 125.703C704.666 125.703 703.927 126.442 703.927 127.355Z" fill="white"/>
<path opacity="0.4" d="M1389.64 120.748C1389.64 121.66 1390.37 122.4 1391.29 122.4C1392.2 122.4 1392.94 121.66 1392.94 120.748C1392.94 119.836 1392.2 119.096 1391.29 119.096C1390.37 119.096 1389.64 119.836 1389.64 120.748Z" fill="white"/>
<path opacity="0.4" d="M1437.44 545.226C1437.44 546.138 1438.18 546.877 1439.09 546.877C1440 546.877 1440.74 546.138 1440.74 545.226C1440.74 544.313 1440 543.574 1439.09 543.574C1438.18 543.574 1437.44 544.313 1437.44 545.226Z" fill="white"/>
<path opacity="0.4" d="M1432.65 425.362C1432.65 426.274 1433.39 427.014 1434.31 427.014C1435.22 427.014 1435.96 426.274 1435.96 425.362C1435.96 424.45 1435.22 423.71 1434.31 423.71C1433.39 423.71 1432.65 424.45 1432.65 425.362Z" fill="white"/>
<path opacity="0.4" d="M1319.63 295.588C1319.63 296.501 1320.37 297.24 1321.28 297.24C1322.2 297.24 1322.94 296.501 1322.94 295.588C1322.94 294.676 1322.2 293.937 1321.28 293.937C1320.37 293.937 1319.63 294.676 1319.63 295.588Z" fill="white"/>
<path opacity="0.4" d="M1068.17 304.319C1068.17 305.231 1068.91 305.97 1069.83 305.97C1070.74 305.97 1071.48 305.231 1071.48 304.319C1071.48 303.406 1070.74 302.667 1069.83 302.667C1068.91 302.667 1068.17 303.406 1068.17 304.319Z" fill="white"/>
<path opacity="0.4" d="M1103.79 463.473C1103.79 464.385 1104.53 465.125 1105.45 465.125C1106.36 465.125 1107.1 464.385 1107.1 463.473C1107.1 462.561 1106.36 461.821 1105.45 461.821C1104.53 461.821 1103.79 462.561 1103.79 463.473Z" fill="white"/>
<path opacity="0.4" d="M1053.94 525.575C1053.94 526.488 1054.68 527.227 1055.59 527.227C1056.51 527.227 1057.25 526.488 1057.25 525.575C1057.25 524.663 1056.51 523.924 1055.59 523.924C1054.68 523.924 1053.94 524.663 1053.94 525.575Z" fill="white"/>
<path opacity="0.4" d="M1368.91 516.798C1368.91 517.71 1369.65 518.45 1370.56 518.45C1371.47 518.45 1372.21 517.71 1372.21 516.798C1372.21 515.886 1371.47 515.146 1370.56 515.146C1369.65 515.146 1368.91 515.886 1368.91 516.798Z" fill="white"/>
<path opacity="0.4" d="M1155.3 623.59C1155.3 624.502 1156.04 625.242 1156.95 625.242C1157.86 625.242 1158.6 624.502 1158.6 623.59C1158.6 622.678 1157.86 621.938 1156.95 621.938C1156.04 621.938 1155.3 622.678 1155.3 623.59Z" fill="white"/>
<path opacity="0.4" d="M1175.06 414.98C1175.06 415.892 1175.8 416.632 1176.71 416.632C1177.62 416.632 1178.36 415.892 1178.36 414.98C1178.36 414.068 1177.62 413.328 1176.71 413.328C1175.8 413.328 1175.06 414.068 1175.06 414.98Z" fill="white"/>
<path opacity="0.4" d="M1164.44 336.323C1164.44 337.235 1165.18 337.975 1166.09 337.975C1167.01 337.975 1167.75 337.235 1167.75 336.323C1167.75 335.411 1167.01 334.672 1166.09 334.672C1165.18 334.672 1164.44 335.411 1164.44 336.323Z" fill="white"/>
<path opacity="0.4" d="M1060.86 146.939C1060.86 147.851 1061.6 148.59 1062.51 148.59C1063.42 148.59 1064.16 147.851 1064.16 146.939C1064.16 146.026 1063.42 145.287 1062.51 145.287C1061.6 145.287 1060.86 146.026 1060.86 146.939Z" fill="white"/>
<path opacity="0.4" d="M1348.34 240.055C1348.34 240.967 1349.08 241.706 1350 241.706C1350.91 241.706 1351.65 240.967 1351.65 240.055C1351.65 239.143 1350.91 238.403 1350 238.403C1349.08 238.403 1348.34 239.143 1348.34 240.055Z" fill="white"/>
<path opacity="0.4" d="M1381.06 358.975C1381.06 359.887 1381.8 360.626 1382.71 360.626C1383.62 360.626 1384.36 359.887 1384.36 358.975C1384.36 358.062 1383.62 357.323 1382.71 357.323C1381.8 357.323 1381.06 358.062 1381.06 358.975Z" fill="white"/>
<path opacity="0.4" d="M1253.16 116.737C1253.16 117.649 1253.9 118.389 1254.81 118.389C1255.72 118.389 1256.46 117.649 1256.46 116.737C1256.46 115.825 1255.72 115.085 1254.81 115.085C1253.9 115.085 1253.16 115.825 1253.16 116.737Z" fill="white"/>
<path opacity="0.4" d="M1189.93 127.355C1189.93 128.267 1190.67 129.006 1191.58 129.006C1192.49 129.006 1193.23 128.267 1193.23 127.355C1193.23 126.442 1192.49 125.703 1191.58 125.703C1190.67 125.703 1189.93 126.442 1189.93 127.355Z" fill="white"/>
<path opacity="0.7" d="M830.217 353.566L831.275 359.239L832.332 353.566L834.436 355.02L832.992 352.906L838.665 351.849L832.992 350.801L834.436 348.687L832.332 350.131L831.275 344.468L830.217 350.131L828.103 348.687L829.557 350.801L823.885 351.849L829.557 352.906L828.103 355.02L830.217 353.566Z" fill="#E1D1FF"/>
<path opacity="0.7" d="M688.127 649.969L689.175 655.632L690.232 649.969L692.346 651.413L690.893 649.299L696.565 648.251L690.893 647.194L692.346 645.08L690.232 646.534L689.175 640.861L688.127 646.534L686.013 645.08L687.457 647.194L681.794 648.251L687.457 649.299L686.013 651.413L688.127 649.969Z" fill="#E1D1FF"/>
<path opacity="0.7" d="M697.32 518.261L698.377 523.924L699.434 518.261L701.548 519.705L700.095 517.591L705.767 516.543L700.095 515.486L701.548 513.372L699.434 514.825L698.377 509.153L697.32 514.825L695.215 513.372L696.659 515.486L690.987 516.543L696.659 517.591L695.215 519.705L697.32 518.261Z" fill="#E1D1FF"/>
<path opacity="0.7" d="M816.193 627.375L817.25 633.047L818.307 627.375L820.411 628.819L818.967 626.714L824.64 625.657L818.967 624.6L820.411 622.486L818.307 623.939L817.25 618.267L816.193 623.939L814.078 622.486L815.532 624.6L809.86 625.657L815.532 626.714L814.078 628.819L816.193 627.375Z" fill="#E1D1FF"/>
<path opacity="0.7" d="M940.671 491.806L941.728 497.478L942.785 491.806L944.89 493.25L943.446 491.145L949.118 490.088L943.446 489.031L944.89 486.917L942.785 488.371L941.728 482.698L940.671 488.371L938.557 486.917L940.01 489.031L934.338 490.088L940.01 491.145L938.557 493.25L940.671 491.806Z" fill="#E1D1FF"/>
<path opacity="0.7" d="M651.29 220.81L652.338 226.483L653.395 220.81L655.509 222.255L654.056 220.15L659.728 219.093L654.056 218.036L655.509 215.922L653.395 217.375L652.338 211.703L651.29 217.375L649.176 215.922L650.62 218.036L644.948 219.093L650.62 220.15L649.176 222.255L651.29 220.81Z" fill="#E1D1FF"/>
<path opacity="0.7" d="M609.31 265.858L610.367 271.531L611.415 265.858L613.529 267.303L612.085 265.188L617.748 264.141L612.085 263.084L613.529 260.97L611.415 262.423L610.367 256.751L609.31 262.423L607.196 260.97L608.649 263.084L602.977 264.141L608.649 265.188L607.196 267.303L609.31 265.858Z" fill="#E1D1FF"/>
<path opacity="0.7" d="M864.987 173.356L866.045 179.028L867.102 173.356L869.216 174.809L867.762 172.695L873.435 171.638L867.762 170.581L869.216 168.476L867.102 169.92L866.045 164.248L864.987 169.92L862.883 168.476L864.327 170.581L858.655 171.638L864.327 172.695L862.883 174.809L864.987 173.356Z" fill="#E1D1FF"/>
<path opacity="0.7" d="M860.447 46.8951L861.505 52.5674L862.562 46.8951L864.676 48.3391L863.222 46.225L868.895 45.1774L863.222 44.1203L864.676 42.0062L862.562 43.4596L861.505 37.7874L860.447 43.4596L858.343 42.0062L859.787 44.1203L854.114 45.1774L859.787 46.225L858.343 48.3391L860.447 46.8951Z" fill="#E1D1FF"/>
<path opacity="0.7" d="M964.172 111.329L965.229 117.001L966.286 111.329L968.391 112.773L966.947 110.668L972.619 109.611L966.947 108.554L968.391 106.44L966.286 107.893L965.229 102.221L964.172 107.893L962.058 106.44L963.511 108.554L957.839 109.611L963.511 110.668L962.058 112.773L964.172 111.329Z" fill="#E1D1FF"/>
<path opacity="0.7" d="M572.039 32.7474L573.096 38.4197L574.153 32.7474L576.267 34.1914L574.814 32.0867L580.486 31.0297L574.814 29.9726L576.267 27.8585L574.153 29.3119L573.096 23.6396L572.039 29.3119L569.934 27.8585L571.378 29.9726L565.706 31.0297L571.378 32.0867L569.934 34.1914L572.039 32.7474Z" fill="#E1D1FF"/>
<path opacity="0.7" d="M1316.22 353.566L1317.27 359.239L1318.33 353.566L1320.44 355.02L1318.99 352.906L1324.66 351.849L1318.99 350.801L1320.44 348.687L1318.33 350.131L1317.27 344.468L1316.22 350.131L1314.1 348.687L1315.56 350.801L1309.88 351.849L1315.56 352.906L1314.1 355.02L1316.22 353.566Z" fill="#E1D1FF"/>
<path opacity="0.7" d="M1174.13 649.969L1175.17 655.632L1176.23 649.969L1178.35 651.413L1176.89 649.299L1182.56 648.251L1176.89 647.194L1178.35 645.08L1176.23 646.534L1175.17 640.861L1174.13 646.534L1172.01 645.08L1173.46 647.194L1167.79 648.251L1173.46 649.299L1172.01 651.413L1174.13 649.969Z" fill="#E1D1FF"/>
<path opacity="0.7" d="M1183.32 518.261L1184.38 523.924L1185.43 518.261L1187.55 519.705L1186.09 517.591L1191.77 516.543L1186.09 515.486L1187.55 513.372L1185.43 514.825L1184.38 509.153L1183.32 514.825L1181.21 513.372L1182.66 515.486L1176.99 516.543L1182.66 517.591L1181.21 519.705L1183.32 518.261Z" fill="#E1D1FF"/>
<path opacity="0.7" d="M1302.19 627.375L1303.25 633.047L1304.31 627.375L1306.41 628.819L1304.97 626.714L1310.64 625.657L1304.97 624.6L1306.41 622.486L1304.31 623.939L1303.25 618.267L1302.19 623.939L1300.08 622.486L1301.53 624.6L1295.86 625.657L1301.53 626.714L1300.08 628.819L1302.19 627.375Z" fill="#E1D1FF"/>
<path opacity="0.7" d="M1426.67 491.806L1427.73 497.478L1428.78 491.806L1430.89 493.25L1429.44 491.145L1435.12 490.088L1429.44 489.031L1430.89 486.917L1428.78 488.371L1427.73 482.698L1426.67 488.371L1424.56 486.917L1426.01 489.031L1420.34 490.088L1426.01 491.145L1424.56 493.25L1426.67 491.806Z" fill="#E1D1FF"/>
<path opacity="0.7" d="M1137.29 220.81L1138.34 226.483L1139.39 220.81L1141.51 222.255L1140.05 220.15L1145.73 219.093L1140.05 218.036L1141.51 215.922L1139.39 217.375L1138.34 211.703L1137.29 217.375L1135.18 215.922L1136.62 218.036L1130.95 219.093L1136.62 220.15L1135.18 222.255L1137.29 220.81Z" fill="#E1D1FF"/>
<path opacity="0.7" d="M1095.31 265.858L1096.37 271.531L1097.41 265.858L1099.53 267.303L1098.08 265.188L1103.75 264.141L1098.08 263.084L1099.53 260.97L1097.41 262.423L1096.37 256.751L1095.31 262.423L1093.19 260.97L1094.65 263.084L1088.98 264.141L1094.65 265.188L1093.19 267.303L1095.31 265.858Z" fill="#E1D1FF"/>
<path opacity="0.7" d="M1350.99 173.356L1352.04 179.028L1353.1 173.356L1355.21 174.809L1353.76 172.695L1359.43 171.638L1353.76 170.581L1355.21 168.476L1353.1 169.92L1352.04 164.248L1350.99 169.92L1348.88 168.476L1350.33 170.581L1344.65 171.638L1350.33 172.695L1348.88 174.809L1350.99 173.356Z" fill="#E1D1FF"/>
<path opacity="0.7" d="M1346.45 46.8951L1347.5 52.5674L1348.56 46.8951L1350.67 48.3391L1349.22 46.225L1354.89 45.1774L1349.22 44.1203L1350.67 42.0062L1348.56 43.4596L1347.5 37.7874L1346.45 43.4596L1344.34 42.0062L1345.79 44.1203L1340.11 45.1774L1345.79 46.225L1344.34 48.3391L1346.45 46.8951Z" fill="#E1D1FF"/>
<path opacity="0.7" d="M1058.04 32.7474L1059.09 38.4197L1060.15 32.7474L1062.27 34.1914L1060.81 32.0867L1066.48 31.0297L1060.81 29.9726L1062.27 27.8585L1060.15 29.3119L1059.09 23.6396L1058.04 29.3119L1055.93 27.8585L1057.38 29.9726L1051.7 31.0297L1057.38 32.0867L1055.93 34.1914L1058.04 32.7474Z" fill="#E1D1FF"/>
<path d="M848.859 299.445C803.86 286.687 810.422 324.961 819.797 324.961C823.649 324.961 831.633 325.906 841.36 325.906H870.891C908.39 325.906 919.171 323.385 919.64 322.598C922.921 297.555 903.078 299.917 892.453 302.752C894.172 293.46 892.359 274.685 871.359 273.929C850.359 273.173 847.609 290.625 848.859 299.445Z" fill="#1F265E"/>
<path d="M1304.85 267.539C1259.85 254.781 1266.42 293.055 1275.79 293.055C1279.64 293.055 1287.63 294 1297.35 294H1326.88C1364.38 294 1375.16 291.48 1375.63 290.692C1378.92 265.649 1359.07 268.012 1348.45 270.847C1350.17 261.554 1348.35 242.779 1327.35 242.023C1306.35 241.267 1303.6 258.719 1304.85 267.539Z" fill="#1F265E"/>
<path d="M503.412 219.728C485.328 214.821 487.965 229.542 491.733 229.542C493.281 229.542 496.489 229.906 500.398 229.906H512.266C527.335 229.906 531.668 228.936 531.857 228.633C533.175 219.001 525.201 219.91 520.931 221C521.622 217.426 520.893 210.205 512.454 209.915C504.014 209.624 502.909 216.336 503.412 219.728Z" fill="#1F265E"/>
<path d="M989.407 219.728C971.323 214.821 973.96 229.542 977.727 229.542C979.275 229.542 982.484 229.905 986.393 229.905H998.26C1013.33 229.905 1017.66 228.936 1017.85 228.633C1019.17 219.001 1011.2 219.91 1006.93 221C1007.62 217.426 1006.89 210.205 998.448 209.914C990.009 209.623 988.904 216.335 989.407 219.728Z" fill="#1F265E"/>
<path d="M700.481 76.1543C665.996 66.5859 671.025 95.291 678.209 95.291C681.161 95.291 687.28 95.9998 694.734 95.9998H717.365C746.103 95.9998 754.365 94.1097 754.725 93.5191C757.239 74.7368 742.032 76.5087 733.89 78.635C735.207 71.6654 733.818 57.5846 717.724 57.0176C701.63 56.4506 699.523 69.5391 700.481 76.1543Z" fill="#1F265E"/>
<path d="M1186.48 56.0594C1151.99 46.4911 1157.02 75.1962 1164.2 75.1962C1167.15 75.1962 1173.27 75.9049 1180.73 75.9049H1203.36C1232.1 75.9049 1240.36 74.0149 1240.72 73.4242C1243.23 54.6419 1228.03 56.4138 1219.88 58.5401C1221.2 51.5706 1219.81 37.4898 1203.72 36.9227C1187.62 36.3557 1185.52 49.4443 1186.48 56.0594Z" fill="#1F265E"/>
<path d="M844.779 19.6395C818.705 12.2792 822.507 34.3601 827.939 34.3601C830.171 34.3601 834.797 34.9053 840.434 34.9053H857.545C879.273 34.9053 885.52 33.4514 885.792 32.9971C887.694 18.5491 876.196 19.9121 870.039 21.5477C871.035 16.1866 869.985 5.35516 857.816 4.919C845.648 4.48283 844.055 14.551 844.779 19.6395Z" fill="#1F265E"/>
<path d="M1330.77 19.6392C1304.7 12.2789 1308.5 34.3597 1313.93 34.3597C1316.16 34.3597 1320.79 34.9049 1326.43 34.9049H1343.54C1365.27 34.9049 1371.51 33.451 1371.79 32.9967C1373.69 18.5487 1362.19 19.9118 1356.03 21.5474C1357.03 16.1862 1355.98 5.3548 1343.81 4.91863C1331.64 4.48247 1330.05 14.5506 1330.77 19.6392Z" fill="#1F265E"/>
<path d="M501.752 39.7104C481.987 34.3128 484.869 50.5055 488.987 50.5055C490.679 50.5055 494.185 50.9053 498.458 50.9053H511.43C527.901 50.9053 532.637 49.8391 532.843 49.5059C534.284 38.9108 525.568 39.9103 520.901 41.1098C521.656 37.1782 520.86 29.2352 511.635 28.9153C502.411 28.5955 501.203 35.9788 501.752 39.7104Z" fill="#1F265E"/>
<path d="M1006.75 50.8046C986.981 45.4071 989.863 61.5997 993.981 61.5997C995.673 61.5997 999.18 61.9995 1003.45 61.9995H1016.42C1032.9 61.9995 1037.63 60.9333 1037.84 60.6002C1039.28 50.005 1030.56 51.0045 1025.9 52.204C1026.65 48.2725 1025.85 40.3294 1016.63 40.0096C1007.41 39.6897 1006.2 47.073 1006.75 50.8046Z" fill="#1F265E"/>
<path d="M541.763 31.2025C541.763 31.2025 538.572 25.1337 533.46 28.2749C533.46 28.2749 537.039 23.2949 533.972 19.6172C533.972 19.6172 537.542 23.7484 542.25 22.0666C542.25 22.0666 538.547 24.6555 541.763 31.2025Z" fill="#6D75B0"/>
<path d="M1027.76 31.2021C1027.76 31.2021 1024.57 25.1333 1019.45 28.2745C1019.45 28.2745 1023.03 23.2945 1019.97 19.6169C1019.97 19.6169 1023.54 23.748 1028.24 22.0663C1028.24 22.0663 1024.54 24.6551 1027.76 31.2021Z" fill="#6D75B0"/>
<path d="M518.698 7.55775C518.698 7.55775 521.911 4.46347 519.021 1.83922C519.021 1.83922 522.782 3.1718 524.523 0.588464C524.523 0.588464 522.589 3.5683 524.494 6.20481C524.494 6.20481 522.205 4.36129 518.698 7.55775Z" fill="white"/>
<path d="M1004.69 7.55738C1004.69 7.55738 1007.9 4.46311 1005.02 1.83885C1005.02 1.83885 1008.78 3.17144 1010.52 0.588098C1010.52 0.588098 1008.58 3.56793 1010.49 6.20444C1010.49 6.20444 1008.2 4.36092 1004.69 7.55738Z" fill="white"/>
<path d="M790.318 0.848683C790.318 0.848683 791.613 7.58172 797.417 6.05699C797.417 6.05699 792.548 9.78606 794.418 14.1947C794.418 14.1947 792.198 9.20623 787.205 9.4513C787.205 9.4513 791.498 8.04659 790.318 0.848683Z" fill="#6D75B0"/>
<path d="M1276.31 0.848438C1276.31 0.848438 1277.61 7.58147 1283.41 6.05675C1283.41 6.05675 1278.54 9.78581 1280.41 14.1945C1280.41 14.1945 1278.19 9.20599 1273.2 9.45106C1273.2 9.45106 1277.49 8.04634 1276.31 0.848438Z" fill="#6D75B0"/>
<path d="M782.428 46.1314C782.428 46.1314 778.456 48.1617 780.461 51.5109C780.461 51.5109 777.248 49.1456 774.833 51.1134C774.833 51.1134 777.547 48.8218 776.488 45.7464C776.488 45.7464 778.145 48.1742 782.428 46.1314Z" fill="white"/>
<path d="M1268.42 46.1311C1268.42 46.1311 1264.45 48.1615 1266.46 51.5106C1266.46 51.5106 1263.24 49.1454 1260.83 51.1131C1260.83 51.1131 1263.54 48.8216 1262.48 45.7462C1262.48 45.7462 1264.14 48.174 1268.42 46.1311Z" fill="white"/>
<g filter="url(#filter1_f_226_3)">
<path d="M782.428 46.1315C782.428 46.1315 778.456 48.1618 780.461 51.511C780.461 51.511 777.248 49.1457 774.833 51.1135C774.833 51.1135 777.547 48.8219 776.488 45.7465C776.488 45.7465 778.145 48.1743 782.428 46.1315Z" fill="white"/>
</g>
<g filter="url(#filter2_f_226_3)">
<path d="M1268.42 46.1311C1268.42 46.1311 1264.45 48.1615 1266.46 51.5106C1266.46 51.5106 1263.24 49.1454 1260.83 51.1131C1260.83 51.1131 1263.54 48.8216 1262.48 45.7462C1262.48 45.7462 1264.14 48.174 1268.42 46.1311Z" fill="white"/>
</g>
<path d="M831.483 66.1834C831.483 66.1834 827.511 68.2137 829.517 71.5629C829.517 71.5629 826.304 69.1976 823.888 71.1654C823.888 71.1654 826.602 68.8738 825.543 65.7984C825.543 65.7984 827.2 68.2262 831.483 66.1834Z" fill="#6D75B0"/>
<path d="M1317.48 66.1831C1317.48 66.1831 1313.51 68.2135 1315.51 71.5626C1315.51 71.5626 1312.3 69.1974 1309.88 71.1652C1309.88 71.1652 1312.6 68.8736 1311.54 65.7982C1311.54 65.7982 1313.19 68.226 1317.48 66.1831Z" fill="#6D75B0"/>
<defs>
<filter id="filter0_f_226_3" x="284.832" y="41.7467" width="15.5947" height="13.7644" filterUnits="userSpaceOnUse" color-interpolation-filters="sRGB">
<feFlood flood-opacity="0" result="BackgroundImageFix"/>
<feBlend mode="normal" in="SourceGraphic" in2="BackgroundImageFix" result="shape"/>
<feGaussianBlur stdDeviation="2" result="effect1_foregroundBlur_226_3"/>
</filter>
<filter id="filter1_f_226_3" x="770.833" y="41.7466" width="15.5947" height="13.7644" filterUnits="userSpaceOnUse" color-interpolation-filters="sRGB">
<feFlood flood-opacity="0" result="BackgroundImageFix"/>
<feBlend mode="normal" in="SourceGraphic" in2="BackgroundImageFix" result="shape"/>
<feGaussianBlur stdDeviation="2" result="effect1_foregroundBlur_226_3"/>
</filter>
<filter id="filter2_f_226_3" x="1256.83" y="41.7462" width="15.5947" height="13.7644" filterUnits="userSpaceOnUse" color-interpolation-filters="sRGB">
<feFlood flood-opacity="0" result="BackgroundImageFix"/>
<feBlend mode="normal" in="SourceGraphic" in2="BackgroundImageFix" result="shape"/>
<feGaussianBlur stdDeviation="2" result="effect1_foregroundBlur_226_3"/>
</filter>
</defs>
</svg>
