<svg width="487" height="149" viewBox="0 0 487 149" fill="none" xmlns="http://www.w3.org/2000/svg">
<path opacity="0.4" d="M417.641 120.748C417.641 121.661 418.381 122.4 419.293 122.4C420.205 122.4 420.944 121.661 420.944 120.748C420.944 119.836 420.205 119.097 419.293 119.097C418.381 119.097 417.641 119.836 417.641 120.748Z" fill="white"/>
<path opacity="0.4" d="M88.8658 146.939C88.8658 147.851 89.6052 148.591 90.5174 148.591C91.4296 148.591 92.1691 147.851 92.1691 146.939C92.1691 146.027 91.4296 145.287 90.5174 145.287C89.6052 145.287 88.8658 146.027 88.8658 146.939Z" fill="white"/>
<path opacity="0.4" d="M281.167 116.737C281.167 117.649 281.906 118.389 282.818 118.389C283.73 118.389 284.47 117.649 284.47 116.737C284.47 115.825 283.73 115.086 282.818 115.086C281.906 115.086 281.167 115.825 281.167 116.737Z" fill="white"/>
<path opacity="0.4" d="M217.931 127.355C217.931 128.267 218.671 129.007 219.583 129.007C220.495 129.007 221.235 128.267 221.235 127.355C221.235 126.443 220.495 125.703 219.583 125.703C218.671 125.703 217.931 126.443 217.931 127.355Z" fill="white"/>
<path opacity="0.7" d="M374.453 46.8953L375.51 52.5676L376.567 46.8953L378.681 48.3394L377.227 46.2252L382.9 45.1776L377.227 44.1205L378.681 42.0064L376.567 43.4599L375.51 37.7876L374.453 43.4599L372.348 42.0064L373.792 44.1205L368.12 45.1776L373.792 46.2252L372.348 48.3394L374.453 46.8953Z" fill="#E1D1FF"/>
<path opacity="0.7" d="M478.177 111.329L479.234 117.001L480.291 111.329L482.396 112.773L480.952 110.669L486.624 109.611L480.952 108.554L482.396 106.44L480.291 107.894L479.234 102.221L478.177 107.894L476.063 106.44L477.516 108.554L471.844 109.611L477.516 110.669L476.063 112.773L478.177 111.329Z" fill="#E1D1FF"/>
<path opacity="0.7" d="M86.0438 32.7476L87.1009 38.4199L88.158 32.7476L90.2721 34.1917L88.8186 32.087L94.4909 31.0299L88.8186 29.9728L90.2721 27.8587L88.158 29.3122L87.1009 23.6399L86.0438 29.3122L83.9391 27.8587L85.3832 29.9728L79.7109 31.0299L85.3832 32.087L83.9391 34.1917L86.0438 32.7476Z" fill="#E1D1FF"/>
<path d="M193.48 39.1545C158.995 29.5862 164.024 58.2912 171.208 58.2912C174.16 58.2912 180.278 59 187.733 59H210.364C239.102 59 247.364 57.11 247.723 56.5193C250.238 37.737 235.031 39.5089 226.888 41.6352C228.206 34.6657 226.816 20.5849 210.723 20.0178C194.629 19.4508 192.522 32.5394 193.48 39.1545Z" fill="#1F265E"/>
<path d="M358.778 19.6397C332.704 12.2794 336.507 34.3602 341.939 34.3602C344.17 34.3602 348.796 34.9054 354.433 34.9054H371.544C393.273 34.9054 399.52 33.4515 399.792 32.9972C401.693 18.5492 390.195 19.9123 384.038 21.5479C385.034 16.1867 383.984 5.35528 371.816 4.91912C359.647 4.48296 358.054 14.5511 358.778 19.6397Z" fill="#1F265E"/>
<path d="M15.7504 39.7105C-4.01541 34.313 -1.13308 50.5056 2.98478 50.5056C4.67659 50.5056 8.18351 50.9054 12.4564 50.9054H25.4279C41.8993 50.9054 46.635 49.8392 46.8411 49.506C48.2824 38.9109 39.5661 39.9104 34.8991 41.1099C35.6541 37.1783 34.8579 29.2353 25.6334 28.9155C16.409 28.5956 15.2012 35.9789 15.7504 39.7105Z" fill="#1F265E"/>
<path d="M55.7608 31.2026C55.7608 31.2026 52.5702 25.1338 47.4579 28.275C47.4579 28.275 51.0367 23.295 47.9696 19.6174C47.9696 19.6174 51.5396 23.7485 56.2478 22.0667C56.2478 22.0667 52.5455 24.6556 55.7608 31.2026Z" fill="#6D75B0"/>
<path d="M32.6963 7.55787C32.6963 7.55787 35.9092 4.4636 33.0193 1.83934C33.0193 1.83934 36.7798 3.17193 38.5212 0.588586C38.5212 0.588586 36.5877 3.56842 38.4925 6.20493C38.4925 6.20493 36.2035 4.36141 32.6963 7.55787Z" fill="white"/>
<path d="M304.318 0.848927C304.318 0.848927 305.612 7.58196 311.416 6.05724C311.416 6.05724 306.547 9.7863 308.417 14.195C308.417 14.195 306.197 9.20648 301.204 9.45155C301.204 9.45155 305.498 8.04683 304.318 0.848927Z" fill="#6D75B0"/>
<path d="M296.427 46.1316C296.427 46.1316 292.455 48.1619 294.461 51.5111C294.461 51.5111 291.248 49.1458 288.832 51.1136C288.832 51.1136 291.546 48.822 290.487 45.7466C290.487 45.7466 292.144 48.1744 296.427 46.1316Z" fill="white"/>
<g filter="url(#filter0_f_194_106)">
<path d="M296.427 46.1316C296.427 46.1316 292.455 48.1619 294.461 51.5111C294.461 51.5111 291.248 49.1458 288.832 51.1136C288.832 51.1136 291.546 48.822 290.487 45.7466C290.487 45.7466 292.144 48.1744 296.427 46.1316Z" fill="white"/>
</g>
<path d="M345.482 66.1836C345.482 66.1836 341.511 68.2139 343.516 71.5631C343.516 71.5631 340.303 69.1978 337.888 71.1656C337.888 71.1656 340.602 68.874 339.543 65.7986C339.543 65.7986 341.199 68.2265 345.482 66.1836Z" fill="#6D75B0"/>
<defs>
<filter id="filter0_f_194_106" x="284.832" y="41.7467" width="15.5947" height="13.7644" filterUnits="userSpaceOnUse" color-interpolation-filters="sRGB">
<feFlood flood-opacity="0" result="BackgroundImageFix"/>
<feBlend mode="normal" in="SourceGraphic" in2="BackgroundImageFix" result="shape"/>
<feGaussianBlur stdDeviation="2" result="effect1_foregroundBlur_194_106"/>
</filter>
</defs>
</svg>
